<svg width="160" height="160" viewBox="0 0 160 160" fill="none" xmlns="http://www.w3.org/2000/svg">
<path d="M90.3638 112.147C80.8183 108.601 71.0002 108.056 62.0002 110.511C55.7275 112.147 49.7275 115.42 44.2729 119.511L40.4547 122.783L39.3638 123.874L41.8183 126.056C42.091 126.056 42.0911 126.329 42.3638 126.602C42.9092 127.147 43.4547 127.42 44.2729 127.965L45.9092 129.056L47.5456 127.692C47.8183 127.42 48.3638 126.874 48.9092 126.602C53.8183 122.511 59.2728 119.783 65.0001 118.42C72.3638 116.511 80.2728 116.783 88.1819 119.783C94.7274 122.238 108.091 125.238 124.182 118.42L124.727 118.147L125.546 117.329C125.546 117.056 125.818 117.056 126.091 116.783C127.455 115.147 128.818 113.511 129.909 111.602L135.364 103.147L126.636 108.056C113.818 115.147 102.091 116.511 90.3638 112.147Z" fill="white"/>
<path d="M53.0001 82.6937C60.3638 80.7846 68.2729 81.0573 76.182 84.0573C84.9092 87.3301 107.273 91.9664 132.364 69.3301L136.455 65.2392L136.727 64.9664L137.818 63.8755L137.273 62.5119C137 61.421 136.455 60.0574 135.909 58.6937L134.546 54.8755L131.818 57.6028C131.546 58.1482 131 58.4209 130.455 58.9664C118.455 71.2391 99.9092 83.7846 78.6365 76.1483C69.091 72.6028 59.2729 72.0573 50.2729 74.5119C41.5456 76.9664 33.9092 81.6028 26.8183 88.1482V87.8755L22.7274 92.2392C22.7274 92.5119 22.4547 92.5119 22.182 92.7846L21.3638 93.6028L21.6365 94.6937C21.9092 96.0573 22.4547 97.421 22.7274 98.7846L24.3638 103.148L27.0911 99.6028C27.3638 99.0574 27.9092 98.7846 28.182 98.2392C33.9092 93.0574 41.8183 85.6937 53.0001 82.6937Z" fill="white"/>
<path d="M26.5455 77.7843C32.8182 71.2388 39.9091 67.1479 47.5455 64.9661C54.9091 63.057 62.8182 63.3297 70.7273 66.3297C95.2727 75.3297 116.546 60.6024 125.818 52.6933L129.364 49.1479L130.727 48.057L129.636 46.4207C128.818 45.6025 128.273 44.5115 127.455 43.4206L125.818 41.2388L123.909 43.1479C123.636 43.4206 123.091 43.9661 122.818 44.2388C111.364 55.1479 93.6364 66.3297 73.4546 58.6934C63.9091 55.1479 54.0909 54.6025 45.0909 57.057C39.3637 58.6934 33.9091 61.4206 28.4546 64.9661L22.7273 69.6025C22.1818 70.1479 21.9091 70.4207 21.3636 70.9661L20.8182 71.5115V72.3297C20.5455 74.2388 20.5455 76.1479 20.2727 77.7843L20 84.6025L24.6364 79.6933C25.1819 79.1479 25.7273 78.3297 26.5455 77.7843Z" fill="white"/>
<path d="M98.2724 130.693L97.7269 132.33L98.2724 130.693C97.4542 130.42 96.9088 130.148 96.0906 129.875C86.5451 126.329 76.7269 125.784 67.7269 128.239C65.8178 128.784 63.9088 129.33 61.9997 130.148L55.4542 133.148L53.8179 133.966L59.2724 135.875C60.9088 136.42 62.5451 136.966 64.1815 137.511L64.9996 137.784L65.8179 137.511C66.636 137.239 67.4542 136.693 68.2724 136.693C68.8178 136.693 69.3633 136.42 69.9088 136.148C76.4542 134.511 83.5451 134.511 91.1815 136.966C91.9996 137.239 92.5451 137.511 93.3633 137.784L94.727 138.33L95.5451 138.057C97.4542 137.511 99.636 136.966 101.272 136.148L108.909 133.42L101 131.511C100.181 131.239 99.0906 130.966 98.2724 130.693Z" fill="white"/>
<path d="M140 74.2393L135.909 78.3302C135.364 78.8756 134.818 79.4211 134.273 79.9665C123.091 90.6029 105.091 102.057 84.9091 94.4211C75.3636 90.8756 65.5455 90.3302 56.5455 92.7848C48.0909 95.2393 40.4545 99.6029 33.6363 106.148L30.0909 109.967L29 111.33L30.0909 112.967C30.9091 114.057 31.4546 114.876 32 115.967L33.6363 118.421L35.5454 115.967C35.8182 115.694 36.3636 115.148 36.6363 114.876C43.1818 107.785 50.2727 103.421 58.4545 101.239C65.8181 99.3302 73.7272 99.6029 81.6363 102.603C88.4545 105.057 95.5454 105.876 102.636 105.057C115.182 103.694 127.727 96.6029 137 88.6939C137.545 88.1484 138.091 87.8757 138.636 87.3302L139.455 86.512V85.6938C139.455 84.0575 139.727 82.1484 139.727 80.512L140 74.2393Z" fill="white"/>
<path d="M36.364 49.1488L35.5458 47.5124L36.364 49.1488C38.0003 48.3306 39.9095 47.7851 41.5458 47.2397C48.9095 45.3306 56.8186 45.6033 64.7277 48.6033C69.9095 50.5124 75.0913 51.3306 80.8186 51.3306C92.2731 51.3306 103.728 47.2397 114.364 39.3306L118.455 36.0579L119.819 34.967L117.364 33.0578C116.546 32.2397 115.455 31.4215 114.364 30.876L112.728 29.7852L111.364 30.876C110.819 31.1488 110.546 31.6942 110 31.9669C95.5458 42.876 81.0913 45.8761 67.4549 40.6942C57.6368 37.1488 47.8185 36.3306 38.0003 39.3306C37.1822 39.6033 36.364 39.876 35.2731 40.1488L34.7277 40.4215L33.9094 41.2397C33.9094 41.5124 33.6368 41.5124 33.364 41.7851C32.2731 43.4215 30.9094 44.7852 29.8185 46.4215L24.6367 54.3306L33.0913 49.967C34.4549 49.967 35.5458 49.4215 36.364 49.1488Z" fill="white"/>
<path d="M58.7273 30.6022L59.5455 30.875C63.0909 32.2386 68.5455 33.6022 75.3637 33.6022C82.4546 33.6022 89.2728 31.9659 96.091 29.2386L104.545 25.1477L98.8182 23.2386C97.1819 22.6932 95.5455 22.1477 93.6364 21.875H92.8182L92.0001 22.1477C91.1819 22.4204 90.3636 22.9659 89.5455 23.2386C81.3636 26.2386 73.1818 26.7841 65.2727 24.6023C64.4546 24.3295 63.6364 24.0568 62.8182 23.784L62.0001 23.5113L61.1818 23.784C59.5455 24.3295 57.9091 24.875 56.2728 25.6932L50 28.4204L56.5455 30.3295C57.091 30.0568 57.9091 30.3295 58.7273 30.6022Z" fill="white"/>
</svg>
